<?xml version="1.0" encoding="UTF-8"?>
<svg 
  xmlns="http://www.w3.org/2000/svg"
  viewBox="0 0 24 24"
  preserveAspectRatio="xMidYMid meet"
  role="img"
  aria-label="RFID Asset Tracking System Logo"
  width="100%"
  height="100%"
  fill="currentColor"
>
  <!-- RFID Signal Waves -->
  <path
    d="M12 2C6.48 2 2 6.48 2 12s4.48 10 10 10 10-4.48 10-10S17.52 2 12 2zm0 18c-4.42 0-8-3.58-8-8s3.58-8 8-8 8 3.58 8 8-3.58 8-8 8z"
    opacity="0.3"
  />
  <path
    d="M12 4C7.58 4 4 7.58 4 12s3.58 8 8 8 8-3.58 8-8-3.58-8-8-8zm0 14c-3.31 0-6-2.69-6-6s2.69-6 6-6 6 2.69 6 6-2.69 6-6 6z"
    opacity="0.5"
  />
  <path
    d="M12 6c-3.31 0-6 2.69-6 6s2.69 6 6 6 6-2.69 6-6-2.69-6-6-6zm0 10c-2.21 0-4-1.79-4-4s1.79-4 4-4 4 1.79 4 4-1.79 4-4 4z"
    opacity="0.7"
  />
  
  <!-- RFID Tag Center -->
  <rect
    x="10"
    y="10"
    width="4"
    height="4"
    rx="1"
  />
  
  <!-- Signal Indicator -->
  <path
    d="M12 8.5v-2M12 17.5v-2M8.5 12h-2M17.5 12h-2"
    stroke="currentColor"
    stroke-width="2"
    stroke-linecap="round"
  />
  
  <!-- Metadata -->
  <metadata>
    <rdf:RDF xmlns:rdf="http://www.w3.org/1999/02/22-rdf-syntax-ns#"
             xmlns:dc="http://purl.org/dc/elements/1.1/">
      <rdf:Description>
        <dc:title>RFID Asset Tracking System Logo</dc:title>
        <dc:description>Vector logo representing RFID tracking functionality with concentric signal waves</dc:description>
        <dc:creator>RFID Asset Tracking System</dc:creator>
      </rdf:Description>
    </rdf:RDF>
  </metadata>
  
  <!-- Style definitions for responsive behavior -->
  <style>
    @media (max-width: 320px) {
      svg { max-width: 24px; max-height: 24px; }
    }
    @media (min-width: 768px) {
      svg { max-width: 32px; max-height: 32px; }
    }
    @media (min-width: 1024px) {
      svg { max-width: 40px; max-height: 40px; }
    }
    @media (min-width: 1440px) {
      svg { max-width: 48px; max-height: 48px; }
    }
  </style>
</svg>